<svg xmlns="http://www.w3.org/2000/svg" fill="none" viewBox="0 0 32 32" id="Full-Moon-Face-High-Contrast--Streamline-Fluent-Emoji-High-Contrast.svg" height="32" width="32"><desc>Full Moon Face High Contrast Streamline Emoji: https://streamlinehq.com</desc><path fill="#07a67f" d="M15.4925 7.99963c1.379 0 2.4969 -1.11789 2.4969 -2.49689 0 -1.37899 -1.1179 -2.49688 -2.4969 -2.49688 -1.379 0 -2.4969 1.11789 -2.4969 2.49688 0 1.379 1.1179 2.49689 2.4969 2.49689Z" stroke-width="1"></path><path fill="#07a67f" d="M14.7893 22.6147c1.0505 0.8225 1.3368 2.2112 0.6396 3.1018 -0.6973 0.8905 -2.1141 0.9457 -3.1646 0.1232 -1.0505 -0.8224 -1.3368 -2.2111 -0.6396 -3.1017 0.6973 -0.8906 2.1142 -0.9458 3.1646 -0.1233Z" stroke-width="1"></path><path fill="#07a67f" d="M8.18994 10.52c0 -1.37273 1.11505 -2.47996 2.47996 -2.47996 0.2762 0 0.5 -0.22386 0.5 -0.5s-0.2238 -0.5 -0.5 -0.5c-1.91501 0 -3.47996 1.55277 -3.47996 3.47996 0 0.2762 0.22386 0.5 0.5 0.5s0.5 -0.2238 0.5 -0.5Z" stroke-width="1"></path><path fill="#07a67f" d="M20.55 7.54004c0 -0.27614 0.2239 -0.5 0.5 -0.5 1.9151 0 3.4801 1.55276 3.4801 3.47996 0 0.2762 -0.2239 0.5 -0.5 0.5 -0.2762 0 -0.5 -0.2238 -0.5 -0.5 0 -1.37273 -1.1151 -2.47996 -2.4801 -2.47996 -0.2761 0 -0.5 -0.22386 -0.5 -0.5Z" stroke-width="1"></path><path fill="#07a67f" d="M10.308 12.3835c0.199 -0.507 0.6948 -0.864 1.2818 -0.864 0.6077 0 1.1263 0.3941 1.3077 0.9447 0.1296 0.3934 0.5536 0.6073 0.947 0.4777 0.3934 -0.1296 0.6073 -0.5536 0.4777 -0.947 -0.3786 -1.1494 -1.4601 -1.9754 -2.7324 -1.9754 -1.2129 0 -2.25711 0.7431 -2.67815 1.8161 -0.15131 0.3855 0.03862 0.8208 0.42421 0.9721 0.38558 0.1513 0.82084 -0.0386 0.97214 -0.4242Z" stroke-width="1"></path><path fill="#07a67f" d="M20.2099 11.5195c-0.587 0 -1.0828 0.357 -1.2818 0.864 -0.1513 0.3856 -0.5865 0.5755 -0.9721 0.4242 -0.3856 -0.1513 -0.5755 -0.5866 -0.4242 -0.9721 0.421 -1.073 1.4652 -1.8161 2.6781 -1.8161 1.2723 0 2.3538 0.826 2.7324 1.9754 0.1296 0.3934 -0.0843 0.8174 -0.4777 0.947 -0.3934 0.1296 -0.8174 -0.0843 -0.947 -0.4777 -0.1814 -0.5506 -0.7 -0.9447 -1.3077 -0.9447Z" stroke-width="1"></path><path fill="#07a67f" d="M11.9703 16.58c-0.2929 -0.2929 -0.7678 -0.2929 -1.0607 0 -0.2929 0.2928 -0.2929 0.7677 0 1.0606 2.7429 2.7429 7.1878 2.7429 9.9307 0 0.2929 -0.2929 0.2929 -0.7678 0 -1.0606 -0.2929 -0.2929 -0.7678 -0.2929 -1.0607 0 -2.1571 2.1571 -5.6522 2.1571 -7.8093 0Z" stroke-width="1"></path><path fill="#07a67f" d="M1 15.9654C1 7.68133 7.71551 0.96582 15.9995 0.96582c8.284 0 14.9995 6.71551 14.9995 14.99958 0 8.284 -6.7155 14.9995 -14.9995 14.9995C7.71551 30.9649 1 24.2494 1 15.9654ZM15.9995 2.96582c-6.85517 0 -12.47102 5.30625 -12.9643 12.03558 0.03581 -0.0011 0.07175 -0.0016 0.10781 -0.0016 2.01649 0 3.65118 1.6347 3.65118 3.6512 0 1.5355 -0.94787 2.8496 -2.29042 3.3892 2.18101 4.1187 6.51073 6.9247 11.49573 6.9247 1.2407 0 2.4408 -0.1738 3.5773 -0.4984 -0.0599 -0.2622 -0.0914 -0.5352 -0.0914 -0.8155 0 -2.0165 1.6346 -3.6512 3.6511 -3.6512 0.8942 0 1.7133 0.3214 2.3481 0.855 0.9288 -0.9906 1.7042 -2.1268 2.2883 -3.3707 -0.5988 -0.4562 -0.9852 -1.1767 -0.9852 -1.9874 0 -1.2679 0.945 -2.315 2.1691 -2.4756 0.028 -0.3482 0.0422 -0.7003 0.0422 -1.0557 0 -7.1795 -5.8201 -12.99958 -12.9995 -12.99958Z" stroke-width="1"></path></svg>