<svg xmlns="http://www.w3.org/2000/svg" fill="none" viewBox="0 0 32 32" id="Sun-With-Face-High-Contrast--Streamline-Fluent-Emoji-High-Contrast.svg" height="32" width="32"><desc>Sun With Face High Contrast Streamline Emoji: https://streamlinehq.com</desc><path fill="#07a67f" d="M7.3111 11.0336c0 -1.5185 1.2334 -2.7432 2.7433 -2.7432 0.3054 0 0.553 -0.2476 0.553 -0.5531 0 -0.3054 -0.2476 -0.5531 -0.553 -0.5531 -2.1184 0 -3.8495 1.7176 -3.8495 3.8494 0 0.3055 0.2477 0.5531 0.5531 0.5531 0.3055 0 0.5531 -0.2477 0.5531 -0.5531Z" stroke-width="1"></path><path fill="#07a67f" d="M11.4929 17.7363c-0.324 -0.324 -0.8493 -0.324 -1.1733 0 -0.3238 0.324 -0.3238 0.8492 0 1.1732 3.0341 3.034 7.9508 3.034 10.9848 0 0.324 -0.324 0.324 -0.8492 0 -1.1732 -0.324 -0.324 -0.8493 -0.324 -1.1733 0 -2.386 2.3861 -6.2521 2.3861 -8.6382 0Z" stroke-width="1"></path><path fill="#07a67f" d="M20.9832 7.7373c0 -0.3054 0.2475 -0.5531 0.553 -0.5531 2.1183 0 3.8494 1.7176 3.8494 3.8495 0 0.3054 -0.2477 0.553 -0.5531 0.553 -0.3055 0 -0.553 -0.2476 -0.553 -0.553 0 -1.5186 -1.2335 -2.7433 -2.7433 -2.7433 -0.3055 0 -0.553 -0.2476 -0.553 -0.5531Z" stroke-width="1"></path><path fill="#07a67f" d="M9.6542 13.0954c0.2201 -0.5608 0.7685 -0.9557 1.4179 -0.9557 0.6722 0 1.2459 0.4359 1.4464 1.0449 0.1434 0.4352 0.6124 0.6718 1.0475 0.5284 0.4352 -0.1433 0.6718 -0.6123 0.5284 -1.0475 -0.4187 -1.2714 -1.6149 -2.185 -3.0223 -2.185 -1.3417 0 -2.4967 0.8219 -2.9624 2.0088 -0.1674 0.4264 0.0427 0.9079 0.4692 1.0753s0.9079 -0.0427 1.0753 -0.4692Z" stroke-width="1"></path><path fill="#07a67f" d="M20.6072 12.1397c-0.6494 0 -1.1978 0.3949 -1.418 0.9557 -0.1673 0.4265 -0.6487 0.6366 -1.0752 0.4692 -0.4266 -0.1673 -0.6366 -0.6488 -0.4693 -1.0753 0.4657 -1.1869 1.6207 -2.0088 2.9625 -2.0088 1.4073 0 2.6035 0.9136 3.0223 2.185 0.1434 0.4352 -0.0932 0.9042 -0.5284 1.0476 -0.4352 0.1433 -0.9042 -0.0933 -1.0475 -0.5284 -0.2007 -0.6091 -0.7742 -1.045 -1.4464 -1.045Z" stroke-width="1"></path><path fill="#07a67f" d="M12.7203 2.2949c1.1836 -2.5884 4.8338 -2.6437 6.1059 -0.0995 0.4756 0.9512 1.6481 1.3163 2.5773 0.7964l0.5752 -0.3208c2.2565 -1.2831 4.9666 0.6305 4.5352 3.1746l-0.1106 0.6526c-0.177 1.0509 0.5641 2.0353 1.626 2.157l0.6526 0.0775c2.5663 0.2986 3.6392 3.429 1.792 5.232l-0.4757 0.4646c-0.7632 0.7411 -0.7411 1.98 0.0443 2.699l0.4867 0.4424c1.9025 1.7477 0.9291 4.9113 -1.6261 5.2874l-0.6526 0.0995c-1.0508 0.1549 -1.7588 1.1615 -1.5486 2.2123l0.1328 0.6526c0.5088 2.5331 -2.1349 4.5242 -4.4246 3.3185l-0.5863 -0.3097c-0.9402 -0.4978 -2.1127 -0.0996 -2.5552 0.8738 -1.1835 2.5884 -4.8338 2.6437 -6.1059 0.0996 -0.4756 -0.9513 -1.6481 -1.3164 -2.5773 -0.7965l-0.5752 0.3208c-2.2454 1.2721 -4.9555 -0.6415 -4.5241 -3.1857l0.1106 -0.6526c0.177 -1.0508 -0.5641 -2.0353 -1.626 -2.157l-0.6526 -0.0774c-2.5663 -0.2987 -3.6392 -3.429 -1.792 -5.2321l0.4757 -0.4645c0.7632 -0.7412 0.7411 -1.98 -0.0443 -2.699l-0.4867 -0.4425C-0.4317 12.6705 0.5417 9.5069 3.0969 9.1309l0.6526 -0.0996c1.0508 -0.1549 1.7587 -1.1614 1.5486 -2.2123l-0.1328 -0.6415C4.6565 3.6444 7.3002 1.6533 9.5899 2.859l0.5863 0.3098c0.9402 0.4867 2.1016 0.0884 2.5441 -0.8739Zm3.2299 25.8616c6.72 0 12.1676 -5.4476 12.1676 -12.1676S22.6702 3.8214 15.9502 3.8214c-6.7199 0 -12.1675 5.4476 -12.1675 12.1675s5.4476 12.1676 12.1675 12.1676Z" stroke-width="1"></path></svg>